# Blender v2.63 (sub 0) OBJ File: 'cylindrusWIP.blend'
# www.blender.org
mtllib cylindrusWIP.mtl
o Cylinder_Cylinder.001
v 0.711227 -0.994859 -0.748400
v 0.238436 -0.994859 -0.686156
v -0.238435 -0.994859 -0.686156
v -0.711226 -0.994859 -0.748399
v 0.711227 0.994859 -0.748400
v 0.238436 0.994859 -0.686156
v -0.238435 0.994859 -0.686156
v -0.711226 0.994859 -0.748399
v -0.637632 -0.994859 -0.738711
v -0.637632 0.994859 -0.738711
v 0.638918 -0.994859 -0.738880
v 0.638918 0.994859 -0.738880
v -0.321138 0.994859 0.575650
v 0.321139 0.994859 0.575650
v 0.321139 -0.994859 0.575650
v -0.321138 -0.994859 0.575650
v 0.957922 0.994859 0.491815
v -0.957920 -0.994859 0.491816
v -0.957920 0.994859 0.491816
v 0.957922 -0.994859 0.491815
v -0.858798 -0.994859 0.504866
v -0.858798 0.994859 0.504866
v 0.860531 -0.994859 0.504637
v 0.860531 0.994859 0.504637
v 0.711227 0.827618 -0.748400
v -0.238435 0.827618 -0.686156
v -0.711226 0.827618 -0.748399
v 0.238436 0.827618 -0.686156
v -0.332062 0.827618 0.742319
v 0.332064 0.827618 0.742318
v -0.888012 0.827618 0.669127
v -0.637632 0.827618 -0.738711
v 0.889804 0.827618 0.668890
v 0.638918 0.827618 -0.738880
v 0.957922 0.827618 0.491815
v -0.957920 0.827618 0.491816
v -0.637632 -0.827832 -0.738711
v 0.638918 -0.827832 -0.738880
v 0.957922 -0.827832 0.491815
v 0.711227 -0.827832 -0.748400
v -0.238435 -0.827832 -0.686156
v -0.711226 -0.827832 -0.748399
v 0.238436 -0.827832 -0.686156
v -0.332062 -0.827832 0.742319
v 0.332064 -0.827832 0.742318
v -0.888012 -0.827832 0.669127
v 0.889804 -0.827832 0.668890
v -0.957920 -0.827832 0.491816
vt 0.381279 0.462469
vt 0.646505 0.409712
vt 0.649247 0.430539
vt 0.383315 0.477933
vt 0.664433 0.683245
vt 0.394590 0.665559
vt 0.394590 0.563578
vt 0.664433 0.545891
vt 0.649296 0.798226
vt 0.383351 0.750929
vt 0.646505 0.819424
vt 0.381279 0.766667
vt 0.288843 0.461743
vt 0.288734 0.425978
vt 0.304197 0.425930
vt 0.304307 0.461695
vt 0.203199 0.462005
vt 0.203089 0.426240
vt 0.740135 0.035719
vt 0.739049 0.389744
vt 0.700076 0.389624
vt 0.701162 0.035600
vt 0.998730 0.461905
vt 0.999816 0.815929
vt 0.960712 0.816049
vt 0.959626 0.462025
vt 0.101218 0.462318
vt 0.101108 0.426553
vt 0.698004 0.341217
vt 0.432059 0.388514
vt 0.416922 0.273533
vt 0.686765 0.255847
vt 0.015848 0.462580
vt 0.015739 0.426815
vt 0.416922 0.136179
vt 0.686765 0.153866
vt 0.000110 0.462628
vt 0.000000 0.426863
vt 0.698040 0.068221
vt 0.432108 0.020827
vt 0.434850 0.000000
vt 0.700076 0.052757
vt 0.700076 0.356955
vt 0.434850 0.409712
vt 0.262387 0.389782
vt 0.120361 0.390218
vt 0.119275 0.036194
vt 0.261301 0.035758
vt 0.381279 0.389418
vt 0.380193 0.035393
vt 0.016934 0.816605
vt 0.102304 0.816343
vt 0.204285 0.816030
vt 0.289929 0.815767
vt 0.305393 0.815720
vt 0.381279 0.133843
vt 0.396982 0.014567
vt 0.396931 0.394762
vt 0.381279 0.275869
vt 0.001196 0.816653
vt 0.700076 0.543555
vt 0.684373 0.424279
vt 0.001086 0.390584
vt 0.000000 0.036560
vt 0.258855 0.000000
vt 0.121501 0.000421
vt 0.999890 0.036516
vt 0.998804 0.390541
vt 0.960822 0.851814
vt 0.701382 0.852610
vt 0.701272 0.816845
vt 0.260160 0.425509
vt 0.122807 0.425930
vt 0.684424 0.804474
vt 0.700076 0.685581
vt 0.700186 0.462821
vt 1.000000 0.000797
vt 0.740245 0.000000
vt 0.102414 0.852062
vt 0.204394 0.851749
vt 0.959516 0.426306
vt 0.700076 0.427101
vt 0.290039 0.851486
vt 0.017044 0.852324
vt 0.001305 0.852372
vt 0.305503 0.851439
vt 0.738940 0.425509
vt 0.998695 0.426306
vn 0.000000 -1.000000 -0.000000
vn -0.130528 0.000000 -0.991445
vn -0.130527 0.000000 -0.991445
vn 0.933324 0.000000 0.359035
vn -0.930303 0.000000 0.366792
vn -0.000000 0.000000 -1.000000
vn 0.000000 1.000000 0.000000
vn 0.130526 0.000000 -0.991445
vn 0.130524 0.000000 -0.991445
vn 0.000000 0.000000 1.000000
vn -0.130526 0.000000 0.991445
vn 0.092455 0.705895 0.702257
vn -0.092454 0.705895 0.702257
vn 0.092396 -0.706349 0.701808
vn 0.130527 0.000000 0.991445
vn 0.000000 0.705894 0.708317
vn 0.980785 0.000000 -0.195091
vn -0.980785 0.000000 -0.195090
vn 0.000000 -0.706348 0.707864
vn -0.092395 -0.706349 0.701808
vn 0.092454 0.705895 0.702257
vn 0.092395 -0.706349 0.701808
vn -0.092453 0.705895 0.702257
vn -0.092394 -0.706349 0.701808
usemtl Material
s off
f 1/1/1 20/2/1 23/3/1
f 1/1/1 23/3/1 11/4/1
f 16/5/1 3/6/1 2/7/1
f 16/5/1 2/7/1 15/8/1
f 21/9/1 9/10/1 3/6/1
f 21/9/1 3/6/1 16/5/1
f 18/11/1 4/12/1 9/10/1
f 18/11/1 9/10/1 21/9/1
f 34/13/2 12/14/2 5/15/2
f 34/13/2 5/15/2 25/16/2
f 15/8/1 2/7/1 11/4/1
f 15/8/1 11/4/1 23/3/1
f 12/14/3 34/13/3 28/17/3
f 12/14/3 28/17/3 6/18/3
f 39/19/4 35/20/4 33/21/4
f 39/19/4 33/21/4 47/22/4
f 46/23/5 31/24/5 36/25/5
f 46/23/5 36/25/5 48/26/5
f 26/27/6 7/28/6 6/18/6
f 26/27/6 6/18/6 28/17/6
f 10/29/7 22/30/7 13/31/7
f 10/29/7 13/31/7 7/32/7
f 32/33/8 10/34/8 7/28/8
f 32/33/8 7/28/8 26/27/8
f 7/32/7 13/31/7 14/35/7
f 7/32/7 14/35/7 6/36/7
f 10/34/9 32/33/9 27/37/9
f 10/34/9 27/37/9 8/38/9
f 12/39/7 24/40/7 17/41/7
f 12/39/7 17/41/7 5/42/7
f 8/43/7 19/44/7 22/30/7
f 8/43/7 22/30/7 10/29/7
f 6/36/7 14/35/7 24/40/7
f 6/36/7 24/40/7 12/39/7
f 44/45/10 45/46/10 30/47/10
f 44/45/10 30/47/10 29/48/10
f 46/49/11 44/45/11 29/48/11
f 46/49/11 29/48/11 31/50/11
f 37/51/8 32/33/8 26/27/8
f 37/51/8 26/27/8 41/52/8
f 41/52/6 26/27/6 28/17/6
f 41/52/6 28/17/6 43/53/6
f 38/54/2 34/13/2 25/16/2
f 38/54/2 25/16/2 40/55/2
f 14/35/12 30/56/12 33/57/12
f 14/35/12 33/57/12 24/40/12
f 22/30/13 31/58/13 29/59/13
f 22/30/13 29/59/13 13/31/13
f 42/60/9 27/37/9 32/33/9
f 42/60/9 32/33/9 37/51/9
f 45/61/14 15/8/14 23/3/14
f 45/61/14 23/3/14 47/62/14
f 45/46/15 47/63/15 33/64/15
f 45/46/15 33/64/15 30/47/15
f 43/53/3 28/17/3 34/13/3
f 43/53/3 34/13/3 38/54/3
f 13/65/16 29/48/16 30/47/16
f 13/65/16 30/47/16 14/66/16
f 40/67/17 25/68/17 35/20/17
f 40/67/17 35/20/17 39/19/17
f 36/25/18 19/69/18 8/70/18
f 36/25/18 8/70/18 27/71/18
f 44/45/19 16/72/19 15/73/19
f 44/45/19 15/73/19 45/46/19
f 46/74/20 21/9/20 16/5/20
f 46/74/20 16/5/20 44/75/20
f 27/71/18 42/76/18 48/26/18
f 27/71/18 48/26/18 36/25/18
f 1/77/17 40/67/17 39/19/17
f 1/77/17 39/19/17 20/78/17
f 3/79/6 41/52/6 43/53/6
f 3/79/6 43/53/6 2/80/6
f 18/81/18 48/26/18 42/76/18
f 18/81/18 42/76/18 4/82/18
f 38/54/3 11/83/3 2/80/3
f 38/54/3 2/80/3 43/53/3
f 9/84/8 37/51/8 41/52/8
f 9/84/8 41/52/8 3/79/8
f 37/51/9 9/84/9 4/85/9
f 37/51/9 4/85/9 42/60/9
f 40/55/2 1/86/2 11/83/2
f 40/55/2 11/83/2 38/54/2
f 17/87/17 35/20/17 25/68/17
f 17/87/17 25/68/17 5/88/17
f 35/20/4 17/87/4 33/21/4
f 24/40/21 33/57/21 17/41/21
f 47/62/22 23/3/22 20/2/22
f 20/78/4 39/19/4 47/22/4
f 31/24/5 19/69/5 36/25/5
f 19/44/23 31/58/23 22/30/23
f 46/74/24 18/11/24 21/9/24
f 18/81/5 46/23/5 48/26/5
